<svg width="329" height="74" viewBox="0 0 329 74" fill="none" xmlns="http://www.w3.org/2000/svg">
<path d="M52.9512 55.4322C49.1889 59.48 45.7626 61.5039 42.6721 61.5039C40.791 61.5039 39.3549 60.5969 38.364 58.7829C37.3898 56.969 36.9027 54.542 36.9027 51.5019C36.9027 49.1505 37.3814 45.9173 38.3388 41.8023C39.3129 37.6873 40.5642 34.2273 42.0927 31.4224L43.5539 28.8022C41.5552 30.8849 39.9176 33.1692 38.6411 35.655C37.3646 38.124 35.8362 41.5839 34.0558 46.0348C32.2923 50.4858 30.957 53.5174 30.05 55.1298C29.143 56.7422 28.2696 58.0607 27.4298 59.0853C26.6068 60.093 25.8678 60.7481 25.2128 61.0504C24.5745 61.3527 23.4492 61.5039 21.8368 61.5039C21.2153 61.5039 20.9046 61.3359 20.9046 61C20.9046 60.9664 21.0138 60.4373 21.2321 59.4128C21.4505 58.3882 21.6688 56.7506 21.8872 54.5C22.1223 52.2325 22.2903 48.3947 22.3911 42.9864C22.4918 37.5613 23.2812 32.9172 24.7593 29.0542C23.1805 30.8513 21.5681 35.0335 19.9221 41.6007L19.2922 44.0697C17.5622 50.9057 15.5803 55.5245 13.3465 57.9263C11.1126 60.3114 8.92074 61.5039 6.77086 61.5039C5.44398 61.5039 4.27667 61.084 3.26891 60.2442C2.26116 59.4044 1.75728 58.4386 1.75728 57.3469C1.75728 56.5071 2.36193 55.5665 3.57124 54.5252C4.79734 53.4838 5.56995 52.9632 5.88908 52.9632C6.25859 52.9632 6.50213 53.0891 6.6197 53.3411C6.73727 53.593 6.88843 54.29 7.07319 55.4322C7.25794 56.5575 7.53508 57.2965 7.90459 57.6492C8.29089 57.9851 8.76958 58.1531 9.34064 58.1531C10.6339 58.1531 12.0616 56.8598 13.6236 54.2732C15.1856 51.6699 16.6133 47.6556 17.9066 42.2306L18.6372 39.1821C19.225 36.6963 19.8045 34.7144 20.3756 33.2364C20.9466 31.7583 21.7024 30.2803 22.643 28.8022C24.0035 26.6859 24.8349 25.5606 25.1372 25.4263C25.4563 25.2751 26.0442 25.1575 26.9008 25.0735C27.7574 24.9728 28.6139 24.9224 29.4705 24.9224C29.8065 24.9224 29.9744 25.1155 29.9744 25.5018C29.9744 25.6866 29.924 26.0645 29.8233 26.6356C29.5041 28.987 29.353 31.3468 29.3698 33.715L29.4202 40.467C29.4537 46.3456 28.9835 51.0904 28.0093 54.7015C28.8995 53.6266 30.1928 50.8553 31.8892 46.3876C34.3414 40.0555 36.5752 35.3022 38.5907 32.1278C39.5481 30.5994 40.6986 29.1381 42.0423 27.7441C43.4028 26.3332 44.3433 25.5774 44.864 25.4766C46.6444 25.1407 48.1476 24.9728 49.3737 24.9728C49.8272 24.9728 50.0539 25.0987 50.0539 25.3507C50.0539 25.7034 49.7768 26.4928 49.2225 27.7189C47.9125 30.675 46.6864 34.6724 45.5442 39.7112C44.4189 44.75 43.8562 48.7642 43.8562 51.7538C43.8562 55.1298 44.8892 56.8178 46.9551 56.8178C48.6347 56.8178 50.6334 55.3902 52.9512 52.5349V55.4322ZM79.8331 55.4322C77.1457 57.9851 75.2226 59.6479 74.0637 60.4205C72.9048 61.1932 71.7962 61.5795 70.7381 61.5795C68.0844 61.5795 66.8331 59.2364 66.9842 54.5504C65.3046 56.9522 63.751 58.7242 62.3234 59.8663C60.9125 61.0084 59.4513 61.5795 57.9396 61.5795C56.4616 61.5795 55.2019 60.8908 54.1605 59.5136C53.136 58.1195 52.6237 56.4147 52.6237 54.3992C52.6237 51.8798 53.3123 49.478 54.6896 47.1938C56.0837 44.9095 57.864 43.062 60.0307 41.6511C62.1974 40.2402 64.1121 39.5348 65.7749 39.5348C67.8744 39.5348 69.344 40.5006 70.1838 42.4321L75.3234 39.5852H76.7342L74.5172 46.967C73.3751 50.6789 72.804 53.2235 72.804 54.6008C72.804 56.0452 73.3163 56.7674 74.3408 56.7674C74.9959 56.7674 75.7181 56.4231 76.5075 55.7345C77.2969 55.0291 78.4054 53.9625 79.8331 52.5349V55.4322ZM61.3912 56.8178C63.0708 56.8178 64.6496 55.3902 66.1276 52.5349C67.6225 49.6628 68.3699 47.0174 68.3699 44.5988C68.3699 43.6582 68.1599 42.9276 67.74 42.4069C67.3201 41.8695 66.7575 41.6007 66.052 41.6007C64.3725 41.6007 62.7768 43.0284 61.2652 45.8837C59.7704 48.739 59.023 51.3675 59.023 53.7694C59.023 54.6763 59.2413 55.4154 59.678 55.9864C60.1315 56.5407 60.7025 56.8178 61.3912 56.8178ZM98.1238 29.7344C97.8047 33.8326 96.0999 35.8817 93.0095 35.8817C91.565 35.8817 90.2886 35.3946 89.18 34.4205C90.6413 32.5561 91.5063 30.9437 91.775 29.5832C93.1187 30.4062 94.2356 30.8177 95.1258 30.8177C96.1335 30.8177 97.1329 30.4566 98.1238 29.7344ZM98.6781 55.4322C97.0993 57.0278 95.1426 58.4554 92.8079 59.7151C92.1865 64.3004 91.0108 67.8191 89.2808 70.2713C87.5676 72.7235 85.8124 73.9497 84.0153 73.9497C82.89 73.9497 81.9326 73.4794 81.1432 72.5388C80.3538 71.615 79.9591 70.4729 79.9591 69.1124C79.9591 65.8204 82.1761 63.0491 86.6102 60.7984L88.4746 45.6317C84.981 49.9987 82.1089 53.2655 79.8583 55.4322H79.2788V53.1647C81.5127 51.0316 84.5192 47.5045 88.2982 42.5833L89.8603 40.5678C91.6238 40.3662 93.5973 40.0387 95.7808 39.5852C95.0418 43.5826 94.1684 49.4864 93.1607 57.2965C94.7059 56.5239 96.5282 54.9535 98.6277 52.5852L98.6781 55.4322ZM86.4591 63.1163C85.0482 63.7713 83.9313 64.6531 83.1083 65.7616C82.3021 66.887 81.899 68.0375 81.899 69.2132C81.899 69.969 82.0754 70.6073 82.4281 71.1279C82.7808 71.6654 83.1923 71.9341 83.6626 71.9341C84.8215 71.9341 85.5773 70.4561 85.93 67.5L86.4591 63.1163ZM110.57 29.7848C110.57 33.8158 109.083 35.8313 106.11 35.8313C104.666 35.8313 103.431 35.3946 102.407 34.5212C103.381 33.0432 104.137 31.3804 104.674 29.5329C106.001 30.3559 107.068 30.7674 107.874 30.7674C108.781 30.7674 109.679 30.4398 110.57 29.7848ZM111.073 55.4322C107.143 59.5639 104.204 61.6298 102.256 61.6298C101.181 61.6298 100.274 61.084 99.5347 59.9922C98.7957 58.8837 98.4262 57.4981 98.4262 55.8353C98.4262 52.2577 99.6355 47.3029 102.054 40.9709L108.453 39.6356H108.756L106.236 47.5213C105.195 50.7797 104.674 53.1059 104.674 54.5C104.674 55.0542 104.792 55.5077 105.027 55.8604C105.279 56.1964 105.59 56.3643 105.959 56.3643C106.614 56.3643 107.269 56.1292 107.924 55.6589C108.596 55.1718 109.646 54.1305 111.073 52.5349V55.4322ZM135.814 55.3818C132.001 59.5472 128.835 61.6298 126.316 61.6298C125.106 61.6298 124.09 61.2099 123.267 60.3702C122.444 59.5136 122.033 58.4638 122.033 57.2209C122.033 56.6331 122.134 55.7513 122.335 54.5756C122.537 53.3998 122.637 52.7364 122.637 52.5852C122.637 51.8126 122.201 51.4179 121.327 51.4011C120.454 51.3675 120.017 51.0232 120.017 50.3682C120.017 49.7971 120.135 49.4024 120.37 49.1841C120.622 48.9489 121.084 48.8314 121.756 48.8314C123.603 48.781 124.981 48.4031 125.887 47.6976C126.794 46.9754 127.248 46.1272 127.248 45.1531C127.248 44.4644 126.996 43.9018 126.492 43.4651C126.005 43.0116 125.375 42.7848 124.603 42.7848C124.183 42.7848 123.78 42.8352 123.393 42.936C122.99 43.0368 122.604 43.1879 122.234 43.3895C121.848 43.6078 121.445 43.885 121.025 44.2209C120.622 44.5736 120.194 45.0019 119.74 45.5058C119.303 45.9928 118.825 46.5723 118.304 47.2441C118.035 47.5969 117.699 49.2513 117.296 52.2073C117.095 53.7358 116.96 55.1466 116.893 56.4399C116.826 57.6492 116.818 59.0181 116.868 60.5465L111.149 61.5039C110.931 60.2274 110.822 58.6654 110.822 56.8178C110.822 51.779 111.502 46.967 112.862 42.3817C114.223 37.7964 116.448 33.0852 119.539 28.248C121.94 27.2738 124.015 26.518 125.762 25.9805C127.508 25.4263 128.482 25.1491 128.684 25.1491C129.087 25.1491 129.482 25.5522 129.868 26.3584C130.254 27.1646 130.448 28.0128 130.448 28.903C130.448 30.3978 129.952 32.0354 128.961 33.8158C127.97 35.5794 126.433 37.7125 124.351 40.2151C125.778 39.7952 126.962 39.5852 127.903 39.5852C129.465 39.5852 130.742 39.9883 131.732 40.7945C132.723 41.5839 133.219 42.5917 133.219 43.8178C133.219 46.6059 130.708 48.655 125.686 49.9651C127.651 50.4186 128.634 51.5691 128.634 53.4166L128.482 55.6841C128.482 56.7086 128.961 57.2209 129.919 57.2209C130.59 57.2209 131.355 56.8934 132.211 56.2384C133.068 55.5833 134.269 54.332 135.814 52.4845V55.3818ZM119.287 43.2383L120.949 41.3992C125.871 35.8565 128.331 31.9515 128.331 29.684C128.331 28.6427 127.878 28.122 126.971 28.122C125.929 28.122 124.729 29.3481 123.368 31.8003C122.024 34.2525 120.664 38.0652 119.287 43.2383ZM160.554 55.3818C156.742 59.5472 153.576 61.6298 151.056 61.6298C149.847 61.6298 148.831 61.2099 148.008 60.3702C147.185 59.5136 146.773 58.4638 146.773 57.2209C146.773 56.6331 146.874 55.7513 147.076 54.5756C147.277 53.3998 147.378 52.7364 147.378 52.5852C147.378 51.8126 146.941 51.4179 146.068 51.4011C145.194 51.3675 144.758 51.0232 144.758 50.3682C144.758 49.7971 144.875 49.4024 145.11 49.1841C145.362 48.9489 145.824 48.8314 146.496 48.8314C148.344 48.781 149.721 48.4031 150.628 47.6976C151.535 46.9754 151.988 46.1272 151.988 45.1531C151.988 44.4644 151.736 43.9018 151.233 43.4651C150.745 43.0116 150.116 42.7848 149.343 42.7848C148.923 42.7848 148.52 42.8352 148.134 42.936C147.731 43.0368 147.344 43.1879 146.975 43.3895C146.588 43.6078 146.185 43.885 145.765 44.2209C145.362 44.5736 144.934 45.0019 144.481 45.5058C144.044 45.9928 143.565 46.5723 143.045 47.2441C142.776 47.5969 142.44 49.2513 142.037 52.2073C141.835 53.7358 141.701 55.1466 141.634 56.4399C141.566 57.6492 141.558 59.0181 141.608 60.5465L135.889 61.5039C135.671 60.2274 135.562 58.6654 135.562 56.8178C135.562 51.779 136.242 46.967 137.603 42.3817C138.963 37.7964 141.189 33.0852 144.279 28.248C146.681 27.2738 148.755 26.518 150.502 25.9805C152.249 25.4263 153.223 25.1491 153.424 25.1491C153.827 25.1491 154.222 25.5522 154.609 26.3584C154.995 27.1646 155.188 28.0128 155.188 28.903C155.188 30.3978 154.692 32.0354 153.702 33.8158C152.711 35.5794 151.174 37.7125 149.091 40.2151C150.519 39.7952 151.703 39.5852 152.643 39.5852C154.205 39.5852 155.482 39.9883 156.473 40.7945C157.464 41.5839 157.959 42.5917 157.959 43.8178C157.959 46.6059 155.448 48.655 150.426 49.9651C152.391 50.4186 153.374 51.5691 153.374 53.4166L153.223 55.6841C153.223 56.7086 153.702 57.2209 154.659 57.2209C155.331 57.2209 156.095 56.8934 156.952 56.2384C157.808 55.5833 159.009 54.332 160.554 52.4845V55.3818ZM144.027 43.2383L145.69 41.3992C150.611 35.8565 153.072 31.9515 153.072 29.684C153.072 28.6427 152.618 28.122 151.711 28.122C150.67 28.122 149.469 29.3481 148.108 31.8003C146.765 34.2525 145.404 38.0652 144.027 43.2383Z" fill="white"/>
<path d="M202.107 27.757L203.272 32.0483C202.987 34.469 202.23 37.7895 201 42.0096C200.042 39.7571 199.039 37.6924 197.991 35.8153C195.427 34.7797 192.91 34.2619 190.437 34.2619C186.398 34.2619 183.246 35.4529 180.981 37.8348C178.702 40.2296 177.563 43.0322 177.563 46.2426C177.563 48.0032 178.042 49.5178 179 50.7864C179.945 52.0421 181.757 53.2071 184.437 54.2816C187.13 55.356 190.495 56.1651 194.534 56.7088C195.881 56.903 197.259 57.0583 198.67 57.1748C200.081 57.2913 201.628 57.3819 203.311 57.4467C204.994 57.5114 206.567 57.5437 208.03 57.5437L204.612 62.0292C199.563 62.9742 194.8 63.4467 190.321 63.4467C184.405 63.4467 180.081 62.314 177.35 60.0486C174.592 57.7962 173.214 54.8706 173.214 51.2718C173.214 47.2847 174.359 43.3623 176.651 39.5047C178.916 35.647 182.023 32.6502 185.971 30.5143C189.919 28.3783 193.874 27.3104 197.835 27.3104C199.156 27.3104 200.58 27.4592 202.107 27.757ZM214.535 40.2037C213.848 41.3558 213.505 42.5468 213.505 43.7766C213.505 47.1294 215.221 49.1747 218.651 49.9126C218.975 48.6181 219.137 47.3494 219.137 46.1067C219.137 44.1132 218.664 42.6827 217.719 41.8154C216.787 40.961 215.725 40.4238 214.535 40.2037ZM222.865 37.0775L221.816 38.8639C222.787 39.1616 223.577 39.7895 224.185 40.7474C224.806 41.7183 225.117 42.9157 225.117 44.3397C225.117 45.7119 224.852 46.987 224.321 48.165C223.777 49.3301 223.201 50.178 222.593 50.7087C221.972 51.2654 220.904 51.9191 219.389 52.6699C219.117 52.7994 218.735 53.0388 218.243 53.3884C217.868 53.6731 217.544 53.8867 217.272 54.0291C214.748 54.0162 212.45 53.3042 210.379 51.8932C208.308 50.521 207.272 48.7864 207.272 46.6892C207.272 43.2717 209.635 39.9966 214.36 36.8639C216.522 37.0581 218.353 37.1551 219.855 37.1551C220.968 37.1551 221.972 37.1293 222.865 37.0775ZM232.185 37.1551L234.049 36.592V39.1358C234.412 38.9157 235.059 38.5403 235.991 38.0095C236.302 37.8412 236.606 37.66 236.904 37.4658L238.554 36.4755C239.758 36.6438 240.677 36.8509 241.312 37.0969C241.92 37.3428 242.425 37.7118 242.826 38.2037C243.214 38.6827 243.48 39.1681 243.622 39.66C243.752 40.1002 243.816 40.8316 243.816 41.8542C243.816 43.0711 243.7 44.508 243.467 46.165C243.221 47.9255 243.085 49.4401 243.059 50.7087L239.467 53L238.923 53.3689C237.888 54.0809 237.04 54.5664 236.379 54.8253C237.13 51.2395 237.506 48.4304 237.506 46.398C237.506 43.9513 236.968 41.8025 235.894 39.9513C235.855 40.0031 235.622 40.2361 235.195 40.6503L234.845 41.0387L234.049 41.8348L234.146 53C232.036 53.0647 229.842 53.3754 227.564 53.9321C227.564 53.2589 227.57 52.8123 227.583 52.5922C227.609 51.7896 227.622 51.3107 227.622 51.1553V50.7087C227.583 50.165 227.564 49.7831 227.564 49.5631V44.9805C227.564 42.6633 227.525 40.5856 227.447 38.7474C227.616 38.6956 227.81 38.6374 228.03 38.5726C228.25 38.495 228.496 38.4108 228.768 38.3202C229.052 38.2296 229.35 38.126 229.661 38.0095L232.185 37.1551ZM248.069 36.3784L248.049 34.8056C248.205 34.7797 248.82 34.715 249.894 34.6114C251.719 34.4172 253.079 34.2554 253.972 34.126C253.985 34.3331 253.991 34.5532 253.991 34.7862C253.991 35.2004 253.946 35.8865 253.855 36.8445C254.27 36.8833 255.092 36.9027 256.321 36.9027C257.163 36.9027 257.726 36.8833 258.011 36.8445C257.661 38.9416 257.435 40.1778 257.331 40.5532C256.464 40.6827 255.266 40.7798 253.739 40.8445C253.648 42.7604 253.603 44.0679 253.603 44.7669C253.603 45.8931 253.868 46.7928 254.399 47.466C254.917 48.1262 255.817 48.644 257.098 49.0194L253.739 54.1068C249.506 52.9417 247.389 50.754 247.389 47.5436C247.389 47.0129 247.48 45.9902 247.661 44.4756C247.842 42.9093 247.946 41.8542 247.972 41.3105C247.376 41.3235 246.716 41.3947 245.991 41.5241L248.049 37.9901V37.6018L248.069 36.3784ZM265.487 41.3105L265.914 48.9417C266.626 48.152 267.331 47.2653 268.03 46.2815C268.729 45.2847 269.325 44.3526 269.817 43.4853C269.105 42.4627 267.661 41.7377 265.487 41.3105ZM265.564 36.6309C265.758 36.6826 266.93 36.9092 269.079 37.3105C271.021 37.66 272.302 37.9319 272.924 38.126C273.532 38.3461 274.108 38.6956 274.652 39.1746C275.195 39.6536 275.603 40.3267 275.875 41.194C276.147 42.0484 276.283 43.207 276.283 44.6698L276.186 50.3786C276.186 51.0518 276.25 51.8414 276.38 52.7476C275.176 52.9417 272.969 53.4984 269.759 54.4175C269.992 52.644 270.108 50.2038 270.108 47.097C269.888 47.4595 269.247 48.2232 268.186 49.3883C267.124 50.5534 265.61 52.1456 263.642 54.1651C262.127 53.7638 260.962 53.3754 260.147 53C260.095 52.5081 259.991 51.7443 259.836 50.7087C259.616 49.0906 259.506 47.6278 259.506 46.3203C259.506 44.4303 259.901 42.8381 260.69 41.5435C261.454 40.262 263.079 38.6244 265.564 36.6309ZM284.283 36.3784C286.898 36.4432 288.768 36.6114 289.895 36.8833C291.099 37.181 292.095 37.8089 292.885 38.7668C293.675 39.7506 294.069 40.9934 294.069 42.495C292.05 42.8316 290.141 43.3429 288.341 44.029C288.044 42.5921 287.267 41.7118 286.011 41.3882C285.778 43.7313 285.662 45.3429 285.662 46.2232C285.662 46.8705 285.849 47.4012 286.225 47.8155C286.6 48.2297 287.196 48.5792 288.011 48.864C288.853 49.1747 289.616 49.3301 290.302 49.3301C291.39 49.3301 292.419 48.6957 293.39 47.4271L293.468 47.5048C292.717 49.6148 291.785 51.1553 290.671 52.1262C289.571 53.0971 287.927 53.5825 285.739 53.5825C284.108 53.5825 282.794 53.2524 281.797 52.5922C280.814 51.932 280.153 51.123 279.817 50.165C279.467 49.2071 279.293 47.9384 279.293 46.3591C279.293 44.7281 279.357 42.7021 279.487 40.2814C280.988 38.8833 282.587 37.5823 284.283 36.3784ZM297.856 36.3784L297.837 34.8056C297.992 34.7797 298.607 34.715 299.681 34.6114C301.506 34.4172 302.866 34.2554 303.759 34.126C303.772 34.3331 303.778 34.5532 303.778 34.7862C303.778 35.2004 303.733 35.8865 303.642 36.8445C304.057 36.8833 304.879 36.9027 306.108 36.9027C306.95 36.9027 307.513 36.8833 307.798 36.8445C307.448 38.9416 307.222 40.1778 307.118 40.5532C306.251 40.6827 305.053 40.7798 303.526 40.8445C303.435 42.7604 303.39 44.0679 303.39 44.7669C303.39 45.8931 303.655 46.7928 304.186 47.466C304.704 48.1262 305.604 48.644 306.885 49.0194L303.526 54.1068C299.293 52.9417 297.176 50.754 297.176 47.5436C297.176 47.0129 297.267 45.9902 297.448 44.4756C297.629 42.9093 297.733 41.8542 297.759 41.3105C297.163 41.3235 296.503 41.3947 295.778 41.5241L297.837 37.9901V37.6018L297.856 36.3784ZM315.235 36.5144C315.312 36.5144 316.426 36.592 318.575 36.7474C320.879 36.8898 323.125 36.961 325.313 36.961C325.3 37.0127 325.157 37.4982 324.885 38.4173C324.432 39.9189 324.199 41.0322 324.186 41.7571C322.672 41.1617 319.727 40.6762 315.351 40.3008C315.973 42.139 318.005 43.0581 321.448 43.0581C323.261 43.0581 324.504 43.1358 325.177 43.2911C325.824 43.4465 326.335 43.7701 326.711 44.262C327.073 44.741 327.254 45.4336 327.254 46.3397C327.254 47.3106 327.047 48.2621 326.633 49.1941C326.193 50.1262 325.682 50.877 325.099 51.4466C324.504 52.0291 323.455 52.5534 321.953 53.0194C320.465 53.4854 318.898 53.7185 317.254 53.7185C314.406 53.7185 312.031 53.1359 310.128 51.9709C310.361 51.1942 310.717 50.2427 311.196 49.1165C313.215 49.9967 315.5 50.4369 318.05 50.4369C319.397 50.4369 320.639 50.0615 321.779 49.3106C320.989 48.754 320.128 48.4757 319.196 48.4757C319.002 48.4757 318.769 48.4821 318.497 48.4951C317.85 48.521 317.481 48.5339 317.39 48.5339C314.84 48.5339 312.898 48.152 311.565 47.3883C310.231 46.6375 309.565 45.33 309.565 43.4659C309.565 41.9902 309.966 40.7539 310.769 39.7571C311.558 38.7733 313.047 37.6924 315.235 36.5144Z" fill="white"/>
<path d="M168 0L169.439 7.04011C170.419 11.8344 174.166 15.5811 178.96 16.5611L186 18L178.96 19.4389C174.166 20.4189 170.419 24.1656 169.439 28.9599L168 36L166.561 28.9599C165.581 24.1656 161.834 20.4189 157.04 19.4389L150 18L157.04 16.5611C161.834 15.5811 165.581 11.8344 166.561 7.04012L168 0Z" fill="white"/>
</svg>
